<?xml version="1.0" encoding="UTF-8" standalone="no"?>
<!-- Created with Inkscape (http://www.inkscape.org/) -->

<svg
   xmlns:dc="http://purl.org/dc/elements/1.1/"
   xmlns:cc="http://creativecommons.org/ns#"
   xmlns:rdf="http://www.w3.org/1999/02/22-rdf-syntax-ns#"
   xmlns:svg="http://www.w3.org/2000/svg"
   xmlns="http://www.w3.org/2000/svg"
   xmlns:xlink="http://www.w3.org/1999/xlink"
   xmlns:sodipodi="http://sodipodi.sourceforge.net/DTD/sodipodi-0.dtd"
   xmlns:inkscape="http://www.inkscape.org/namespaces/inkscape"
   width="210mm"
   height="297mm"
   viewBox="0 0 210 297"
   version="1.1"
   id="svg8"
   inkscape:version="0.92.3 (2405546, 2018-03-11)"
   sodipodi:docname="datasma_logo.svg">
  <defs
     id="defs2">
    <linearGradient
       inkscape:collect="always"
       id="linearGradient2856">
      <stop
         style="stop-color:#fdf6f6;stop-opacity:0.61678005"
         offset="0"
         id="stop2852" />
      <stop
         style="stop-color:#ffffff;stop-opacity:0;"
         offset="1"
         id="stop2854" />
    </linearGradient>
    <marker
       inkscape:stockid="Arrow2Send"
       orient="auto"
       refY="0.0"
       refX="0.0"
       id="marker4357"
       style="overflow:visible;"
       inkscape:isstock="true">
      <path
         id="path4355"
         style="fill-rule:evenodd;stroke-width:0.625;stroke-linejoin:round;stroke:#000000;stroke-opacity:1;fill:#000000;fill-opacity:1"
         d="M 8.7185878,4.0337352 L -2.2072895,0.016013256 L 8.7185884,-4.0017078 C 6.9730900,-1.6296469 6.9831476,1.6157441 8.7185878,4.0337352 z "
         transform="scale(0.3) rotate(180) translate(-2.3,0)" />
    </marker>
    <marker
       inkscape:stockid="Arrow2Mend"
       orient="auto"
       refY="0.0"
       refX="0.0"
       id="Arrow2Mend"
       style="overflow:visible;"
       inkscape:isstock="true">
      <path
         id="path940"
         style="fill-rule:evenodd;stroke-width:0.625;stroke-linejoin:round;stroke:#000000;stroke-opacity:1;fill:#000000;fill-opacity:1"
         d="M 8.7185878,4.0337352 L -2.2072895,0.016013256 L 8.7185884,-4.0017078 C 6.9730900,-1.6296469 6.9831476,1.6157441 8.7185878,4.0337352 z "
         transform="scale(0.6) rotate(180) translate(0,0)" />
    </marker>
    <marker
       inkscape:stockid="Arrow1Mend"
       orient="auto"
       refY="0.0"
       refX="0.0"
       id="Arrow1Mend"
       style="overflow:visible;"
       inkscape:isstock="true">
      <path
         id="path922"
         d="M 0.0,0.0 L 5.0,-5.0 L -12.5,0.0 L 5.0,5.0 L 0.0,0.0 z "
         style="fill-rule:evenodd;stroke:#000000;stroke-width:1pt;stroke-opacity:1;fill:#000000;fill-opacity:1"
         transform="scale(0.4) rotate(180) translate(10,0)" />
    </marker>
    <marker
       inkscape:stockid="Arrow1Lend"
       orient="auto"
       refY="0.0"
       refX="0.0"
       id="Arrow1Lend"
       style="overflow:visible;"
       inkscape:isstock="true">
      <path
         id="path916"
         d="M 0.0,0.0 L 5.0,-5.0 L -12.5,0.0 L 5.0,5.0 L 0.0,0.0 z "
         style="fill-rule:evenodd;stroke:#000000;stroke-width:1pt;stroke-opacity:1;fill:#000000;fill-opacity:1"
         transform="scale(0.8) rotate(180) translate(12.5,0)" />
    </marker>
    <linearGradient
       inkscape:collect="always"
       xlink:href="#linearGradient2856"
       id="linearGradient1454"
       gradientUnits="userSpaceOnUse"
       gradientTransform="translate(157.50871,14.506903)"
       x1="42.30233"
       y1="177.64557"
       x2="42.86092"
       y2="184.26692" />
    <linearGradient
       inkscape:collect="always"
       xlink:href="#linearGradient2856"
       id="linearGradient1502"
       gradientUnits="userSpaceOnUse"
       gradientTransform="translate(128.45179,32.602513)"
       x1="42.30233"
       y1="177.64557"
       x2="42.86092"
       y2="184.26692" />
    <linearGradient
       inkscape:collect="always"
       xlink:href="#linearGradient2856"
       id="linearGradient1550"
       gradientUnits="userSpaceOnUse"
       gradientTransform="translate(156.23304,36.571263)"
       x1="42.30233"
       y1="177.64557"
       x2="42.86092"
       y2="184.26692" />
    <clipPath
       clipPathUnits="userSpaceOnUse"
       id="clipPath1627">
      <g
         id="g1631"
         transform="translate(19.324033,2.5985863)">
        <path
           style="color:#000000;font-style:normal;font-variant:normal;font-weight:normal;font-stretch:normal;font-size:medium;line-height:normal;font-family:sans-serif;font-variant-ligatures:normal;font-variant-position:normal;font-variant-caps:normal;font-variant-numeric:normal;font-variant-alternates:normal;font-feature-settings:normal;text-indent:0;text-align:start;text-decoration:none;text-decoration-line:none;text-decoration-style:solid;text-decoration-color:#000000;letter-spacing:normal;word-spacing:normal;text-transform:none;writing-mode:lr-tb;direction:ltr;text-orientation:mixed;dominant-baseline:auto;baseline-shift:baseline;text-anchor:start;white-space:normal;shape-padding:0;clip-rule:nonzero;display:inline;overflow:visible;visibility:visible;opacity:1;isolation:auto;mix-blend-mode:normal;color-interpolation:sRGB;color-interpolation-filters:linearRGB;solid-color:#000000;solid-opacity:1;vector-effect:none;fill:#e07a87;fill-opacity:1;fill-rule:nonzero;stroke:none;stroke-width:0.93883955;stroke-linecap:butt;stroke-linejoin:miter;stroke-miterlimit:4;stroke-dasharray:none;stroke-dashoffset:0;stroke-opacity:1;color-rendering:auto;image-rendering:auto;shape-rendering:auto;text-rendering:auto;enable-background:accumulate"
           d="m 750.40625,709.66406 -0.9375,0.92774 -23.30469,11.23828 0.20508,0.41992 -0.375,0.28125 4.88281,6.46094 -10.74414,10.63476 0.66407,0.67188 -0.25,0.39844 1.19921,0.75976 0.0996,0.28125 0.22071,-0.0781 11.47265,7.27343 -3.67773,8.52735 0.86719,0.375 0.004,0.004 -0.0957,0.45704 26.54101,5.62109 0.14454,0.0918 0.0352,-0.0527 0.11328,0.0234 0.0625,-0.30078 0.17383,-0.27149 0.22852,-0.17382 -8.625,-11.41016 16.05859,-5.62695 -0.15625,-0.44532 0.24414,-0.40429 -13.11914,-7.93555 10.54688,-10.29297 0.88281,-0.31445 -0.14453,-0.40625 0.15039,-0.14649 -0.32032,-0.32812 -0.002,-0.008 0.043,-0.4629 -0.2168,-0.0215 -0.14453,-0.40625 -0.86133,0.30664 -15.8164,-1.56445 5.56054,-12.90039 -0.73046,-0.31446 -0.20704,-0.20898 -0.20703,-0.42773 -0.14648,0.0703 z m -2.98047,2.94922 -10.33203,10.22852 -9.01953,-0.89258 z m 1.10352,1.56836 -4.05078,9.39063 -4.94336,-0.48829 z m -20.1543,8.73633 7.85547,0.77734 -2.49219,2.4668 z m -0.16016,0.99414 4.83789,2.92773 -1.50195,1.48633 z m 10.45899,0.0254 5.41601,0.53516 -2.71875,6.30468 -5.96484,-3.60742 z m 7.39258,0.73047 14.14062,1.40039 -16.75586,5.96875 -0.44531,-0.26953 z m -11.34571,3.17969 6.27539,3.79882 -0.64453,1.49414 -4.0664,1.44922 -3.58399,-4.74218 z m 26.04688,0.0254 -9.25977,9.03711 -5.9707,-3.61133 z m -28.74024,2.64062 3.33008,4.40625 -12.1582,4.33008 z m 12.3711,3.19141 6.41601,3.88281 -5.38476,5.25586 -3.20313,-0.39258 -2.4375,-3.22461 1.97656,-4.58398 z m -5.07032,1.80469 -0.85351,1.97851 -0.99609,-1.32031 z m -2.77734,0.98828 1.49805,1.98047 -1.41602,3.28515 -11.05078,-1.35742 z m 15.09375,1.59179 11.44531,6.92383 -16.46875,-2.02344 z m -12.2832,2.12696 1.56836,2.07422 -2.33985,-0.28711 z m -15.76563,0.89843 12.64649,1.55274 -2.32227,5.38476 -10.7207,-6.79687 z m 14.60547,1.79297 3.52149,0.4336 1.35742,1.79492 -5.41797,5.28906 -2.12109,-1.3457 z m 4.81836,0.5918 1.54492,0.18945 -0.80664,0.78711 z m 2.73633,0.33594 17.4082,2.13867 -14.44726,5.0625 -4.39063,-5.80664 z m -2.10547,2.05468 4.13672,5.47266 -5.56641,1.95117 -3.74609,-2.375 z m -8.48828,4.07032 1.80469,1.14453 -3.9668,3.87109 z m 2.61719,1.6582 3.30273,2.09375 -8.50195,2.98047 z m 10.60351,0.53125 7.35938,9.73828 -12.51172,-7.93359 z m -6.28906,2.20313 12.80273,8.11914 -22.42773,-4.74414 z"
           transform="matrix(0.26458333,0,0,0.26458333,-19.324033,-2.5985863)"
           id="path1629"
           inkscape:connector-curvature="0" />
      </g>
    </clipPath>
    <linearGradient
       inkscape:collect="always"
       xlink:href="#linearGradient2856"
       id="linearGradient1633"
       gradientUnits="userSpaceOnUse"
       gradientTransform="translate(157.50871,14.506903)"
       x1="42.30233"
       y1="177.64557"
       x2="42.86092"
       y2="184.26692" />
    <clipPath
       clipPathUnits="userSpaceOnUse"
       id="clipPath1641">
      <g
         transform="translate(23.466303,47.210456)"
         id="g1651">
        <circle
           style="opacity:1;fill:#71283b;fill-opacity:1;fill-rule:evenodd;stroke:none;stroke-width:0.31050161;stroke-linecap:square;stroke-linejoin:bevel;stroke-miterlimit:4;stroke-dasharray:none;stroke-dashoffset:0;stroke-opacity:1;paint-order:markers fill stroke"
           id="circle1643"
           cx="156.16486"
           cy="192.18671"
           r="1.098865"
           transform="rotate(-6.8983287)" />
        <circle
           r="1.098865"
           cy="196.32686"
           cx="153.41736"
           id="circle1645"
           style="opacity:1;fill:#71283b;fill-opacity:1;fill-rule:evenodd;stroke:none;stroke-width:0.31050161;stroke-linecap:square;stroke-linejoin:bevel;stroke-miterlimit:4;stroke-dasharray:none;stroke-dashoffset:0;stroke-opacity:1;paint-order:markers fill stroke"
           transform="rotate(-6.8983287)" />
        <circle
           r="1.098865"
           cy="186.8046"
           cx="156.00024"
           id="circle1647"
           style="opacity:1;fill:#71283b;fill-opacity:1;fill-rule:evenodd;stroke:none;stroke-width:0.31050161;stroke-linecap:square;stroke-linejoin:bevel;stroke-miterlimit:4;stroke-dasharray:none;stroke-dashoffset:0;stroke-opacity:1;paint-order:markers fill stroke"
           transform="rotate(-6.8983287)" />
        <circle
           style="opacity:1;fill:#71283b;fill-opacity:1;fill-rule:evenodd;stroke:none;stroke-width:0.31050161;stroke-linecap:square;stroke-linejoin:bevel;stroke-miterlimit:4;stroke-dasharray:none;stroke-dashoffset:0;stroke-opacity:1;paint-order:markers fill stroke"
           id="circle1649"
           cx="153.22932"
           cy="182.31654"
           r="1.098865"
           transform="rotate(-6.8983287)" />
      </g>
    </clipPath>
    <clipPath
       clipPathUnits="userSpaceOnUse"
       id="clipPath1659">
      <g
         id="g1667"
         transform="translate(-4.4913188,43.483263)">
        <circle
           transform="rotate(-6.8983287)"
           r="1.098865"
           cy="184.50558"
           cx="146.07909"
           id="circle1661"
           style="opacity:1;fill:#e17b88;fill-opacity:1;fill-rule:evenodd;stroke:none;stroke-width:0.31050161;stroke-linecap:square;stroke-linejoin:bevel;stroke-miterlimit:4;stroke-dasharray:none;stroke-dashoffset:0;stroke-opacity:1;paint-order:markers fill stroke" />
        <circle
           transform="rotate(-6.8983287)"
           style="opacity:1;fill:#e17b88;fill-opacity:1;fill-rule:evenodd;stroke:none;stroke-width:0.31050161;stroke-linecap:square;stroke-linejoin:bevel;stroke-miterlimit:4;stroke-dasharray:none;stroke-dashoffset:0;stroke-opacity:1;paint-order:markers fill stroke"
           id="circle1663"
           cx="144.12758"
           cy="189.10295"
           r="1.098865" />
        <circle
           transform="rotate(-6.8983287)"
           r="1.098865"
           cy="194.32939"
           cx="146.33426"
           id="circle1665"
           style="opacity:1;fill:#e17b88;fill-opacity:1;fill-rule:evenodd;stroke:none;stroke-width:0.31050161;stroke-linecap:square;stroke-linejoin:bevel;stroke-miterlimit:4;stroke-dasharray:none;stroke-dashoffset:0;stroke-opacity:1;paint-order:markers fill stroke" />
      </g>
    </clipPath>
    <linearGradient
       inkscape:collect="always"
       xlink:href="#linearGradient2856"
       id="linearGradient1793"
       gradientUnits="userSpaceOnUse"
       gradientTransform="translate(157.50871,14.506903)"
       x1="42.30233"
       y1="177.64557"
       x2="42.86092"
       y2="184.26692" />
    <linearGradient
       inkscape:collect="always"
       xlink:href="#linearGradient2856"
       id="linearGradient1795"
       gradientUnits="userSpaceOnUse"
       gradientTransform="translate(128.45179,32.602513)"
       x1="42.30233"
       y1="177.64557"
       x2="42.86092"
       y2="184.26692" />
    <linearGradient
       inkscape:collect="always"
       xlink:href="#linearGradient2856"
       id="linearGradient1797"
       gradientUnits="userSpaceOnUse"
       gradientTransform="translate(156.23304,36.571263)"
       x1="42.30233"
       y1="177.64557"
       x2="42.86092"
       y2="184.26692" />
  </defs>
  <sodipodi:namedview
     id="base"
     pagecolor="#ffffff"
     bordercolor="#666666"
     borderopacity="1.0"
     inkscape:pageopacity="0.0"
     inkscape:pageshadow="2"
     inkscape:zoom="1.4"
     inkscape:cx="229.09452"
     inkscape:cy="889.70527"
     inkscape:document-units="mm"
     inkscape:current-layer="layer1"
     showgrid="false"
     inkscape:window-width="1853"
     inkscape:window-height="1016"
     inkscape:window-x="67"
     inkscape:window-y="27"
     inkscape:window-maximized="1"
     showguides="true"
     inkscape:guide-bbox="true">
    <sodipodi:guide
       position="17.037805,242.77197"
       orientation="0,1"
       id="guide1815"
       inkscape:locked="false" />
  </sodipodi:namedview>
  <metadata
     id="metadata5">
    <rdf:RDF>
      <cc:Work
         rdf:about="">
        <dc:format>image/svg+xml</dc:format>
        <dc:type
           rdf:resource="http://purl.org/dc/dcmitype/StillImage" />
        <dc:title></dc:title>
      </cc:Work>
    </rdf:RDF>
  </metadata>
  <g
     inkscape:label="Camada 1"
     inkscape:groupmode="layer"
     id="layer1">
    <g
       id="g2869"
       transform="translate(-12.855799,-157.42175)">
      <text
         xml:space="preserve"
         style="font-style:normal;font-variant:normal;font-weight:normal;font-stretch:normal;font-size:10.16700745px;line-height:1.25;font-family:'Fira Sans';-inkscape-font-specification:'Fira Sans, Normal';font-variant-ligatures:normal;font-variant-caps:normal;font-variant-numeric:normal;font-feature-settings:normal;text-align:start;letter-spacing:0px;word-spacing:0px;writing-mode:lr-tb;text-anchor:start;fill:#e07a87;fill-opacity:1;stroke:none;stroke-width:0.25417519"
         x="53.238422"
         y="186.78828"
         id="text2783"><tspan
           sodipodi:role="line"
           id="tspan2781"
           x="53.238422"
           y="186.78828"
           style="font-style:normal;font-variant:normal;font-weight:300;font-stretch:normal;font-size:10.16705513px;font-family:'Fira Sans';-inkscape-font-specification:'Fira Sans, Light';font-variant-ligatures:normal;font-variant-caps:normal;font-variant-numeric:normal;font-feature-settings:normal;text-align:start;writing-mode:lr-tb;text-anchor:start;fill:#e07a87;fill-opacity:1;stroke-width:0.25417519"><tspan
             id="tspan2827"
             style="fill:#e07a87;fill-opacity:1">DAT</tspan><tspan
             id="tspan2785"
             style="font-style:normal;font-variant:normal;font-weight:normal;font-stretch:normal;font-size:10.16705513px;font-family:'Fira Sans';-inkscape-font-specification:'Fira Sans, Normal';font-variant-ligatures:normal;font-variant-caps:normal;font-variant-numeric:normal;font-feature-settings:normal;text-align:start;writing-mode:lr-tb;text-anchor:start;fill:#e07a87;fill-opacity:1">ASMA</tspan></tspan></text>
      <text
         id="text2835"
         y="186.79419"
         x="69.833954"
         style="font-style:normal;font-variant:normal;font-weight:normal;font-stretch:normal;font-size:10.16700745px;line-height:1.25;font-family:'Fira Sans';-inkscape-font-specification:'Fira Sans, Normal';font-variant-ligatures:normal;font-variant-caps:normal;font-variant-numeric:normal;font-feature-settings:normal;text-align:start;letter-spacing:0px;word-spacing:0px;writing-mode:lr-tb;text-anchor:start;fill:#472025;fill-opacity:1;stroke:none;stroke-width:0.25417519"
         xml:space="preserve"><tspan
           style="font-style:normal;font-variant:normal;font-weight:300;font-stretch:normal;font-size:10.16705513px;font-family:'Fira Sans';-inkscape-font-specification:'Fira Sans, Light';font-variant-ligatures:normal;font-variant-caps:normal;font-variant-numeric:normal;font-feature-settings:normal;text-align:start;writing-mode:lr-tb;text-anchor:start;fill:#472025;fill-opacity:1;stroke-width:0.25417519"
           y="186.79419"
           x="69.833954"
           id="tspan2833"
           sodipodi:role="line"><tspan
             style="font-style:normal;font-variant:normal;font-weight:normal;font-stretch:normal;font-size:10.16705513px;font-family:'Fira Sans';-inkscape-font-specification:'Fira Sans, Normal';font-variant-ligatures:normal;font-variant-caps:normal;font-variant-numeric:normal;font-feature-settings:normal;text-align:start;writing-mode:lr-tb;text-anchor:start;fill:#472025;fill-opacity:1"
             id="tspan2831">ASMA</tspan></tspan></text>
    </g>
    <circle
       inkscape:export-ydpi="431.51831"
       inkscape:export-xdpi="431.51831"
       inkscape:export-filename="/home/marciel/circle2379.png"
       r="14.12686"
       cy="24.399374"
       cx="24.288265"
       id="circle1116"
       style="opacity:1;fill:#fdf6f6;fill-opacity:1;fill-rule:evenodd;stroke:none;stroke-width:0.55473095;stroke-linecap:square;stroke-linejoin:bevel;stroke-miterlimit:4;stroke-dasharray:none;stroke-dashoffset:0;stroke-opacity:1;paint-order:markers fill stroke" />
    <g
       id="g1724"
       transform="matrix(0.89228443,0,0,0.89228443,-143.36798,-177.90874)">
      <path
         sodipodi:nodetypes="cccccccccccsccccccccccccccccccc"
         inkscape:connector-curvature="0"
         id="path1202"
         d="m 188.44995,215.77906 c -0.85653,-0.0315 -1.74039,0.26626 -2.55488,0.91467 -0.92699,0.73799 -1.42705,1.99314 -1.74356,3.49953 0.47116,-0.1216 0.91807,-0.22557 1.27847,-0.32194 0.2994,-1.08718 0.71617,-1.89439 1.18753,-2.26963 0.73214,-0.58286 1.37402,-0.73517 2.02726,-0.63872 0.65324,0.0965 1.34724,0.48014 2.03916,1.11362 1.38382,1.26698 2.70016,3.49446 3.67005,5.77329 0.94386,2.21765 1.23303,4.77751 1.13069,6.93756 -0.0512,1.08004 -0.19833,2.06095 -0.40205,2.83962 -0.20372,0.77866 -0.48254,1.35858 -0.68161,1.59215 -0.12304,0.14439 -0.79928,0.51938 -1.68569,0.76533 -0.88641,0.24595 -1.9905,0.43 -3.06234,0.50178 -1.07185,0.0718 -2.11771,0.0274 -2.86339,-0.14624 -0.37283,-0.0868 -0.66745,-0.20886 -0.84595,-0.33022 -0.17849,-0.12134 -0.23446,-0.21277 -0.25579,-0.31626 -0.0446,-0.21639 -0.10717,-0.59593 -0.1757,-1.06246 l -1.21491,-0.26045 c 0.0954,0.6868 0.18513,1.23386 0.25218,1.55908 0.0918,0.44543 0.38701,0.80334 0.74,1.04334 0.35299,0.23999 0.7723,0.3916 1.23662,0.49971 0.92865,0.21625 2.05556,0.25112 3.20497,0.17415 1.14941,-0.077 2.31416,-0.26893 3.29489,-0.54105 0.74872,-0.43407 1.74562,-0.52754 2.25981,-1.13326 0.41286,-0.48446 0.69313,-1.17814 0.92191,-2.05259 0.22878,-0.87444 0.38464,-1.92526 0.43925,-3.07785 0.10921,-2.30519 -0.1895,-5.01526 -1.22473,-7.4476 -1.00922,-2.37122 -2.34702,-4.70572 -3.95273,-6.17586 -0.80285,-0.73506 -1.68686,-1.26323 -2.65462,-1.40611 -0.12097,-0.0179 -0.24248,-0.0291 -0.36484,-0.0336 z"
         style="color:#000000;font-style:normal;font-variant:normal;font-weight:normal;font-stretch:normal;font-size:medium;line-height:normal;font-family:sans-serif;font-variant-ligatures:normal;font-variant-position:normal;font-variant-caps:normal;font-variant-numeric:normal;font-variant-alternates:normal;font-feature-settings:normal;text-indent:0;text-align:start;text-decoration:none;text-decoration-line:none;text-decoration-style:solid;text-decoration-color:#000000;letter-spacing:normal;word-spacing:normal;text-transform:none;writing-mode:lr-tb;direction:ltr;text-orientation:mixed;dominant-baseline:auto;baseline-shift:baseline;text-anchor:start;white-space:normal;shape-padding:0;clip-rule:nonzero;display:inline;overflow:visible;visibility:visible;opacity:1;isolation:auto;mix-blend-mode:normal;color-interpolation:sRGB;color-interpolation-filters:linearRGB;solid-color:#000000;solid-opacity:1;vector-effect:none;fill:#e07a87;fill-opacity:1;fill-rule:nonzero;stroke:none;stroke-width:1.16275108;stroke-linecap:butt;stroke-linejoin:miter;stroke-miterlimit:4;stroke-dasharray:none;stroke-dashoffset:0;stroke-opacity:1;color-rendering:auto;image-rendering:auto;shape-rendering:auto;text-rendering:auto;enable-background:accumulate" />
      <g
         transform="translate(-9.7627668,32.925957)"
         id="g1684">
        <g
           id="g1639"
           transform="translate(1.0690781,0.13363476)">
          <path
             inkscape:export-ydpi="431.51831"
             inkscape:export-xdpi="431.51831"
             inkscape:export-filename="/home/marciel/circle2379.png"
             inkscape:connector-curvature="0"
             id="path1635"
             d="m 193.14828,188.89574 c 0.18389,-0.0455 0.36512,-0.10356 0.55165,-0.1366 0.3163,-0.056 -0.62372,0.18899 -0.94494,0.18899 -0.69662,0 -1.54434,-0.12552 -2.17336,0.18898 -0.4518,0.22591 -0.82692,1.13413 -1.03943,1.55916 -0.86116,1.72231 -2.90692,2.84233 -2.22061,5.24442 0.38201,1.33706 1.39133,2.33137 1.84263,3.68526 0.3056,0.9168 1.15432,3.33602 2.36235,3.63803 2.02028,0.50507 3.20281,-2.15349 5.29167,-1.37017 2.1985,0.82444 3.65794,2.42326 6.23661,1.13393 0.94521,-0.47261 -0.5839,-2.34988 -0.23624,-2.92931 0.96842,-1.61404 2.19908,-1.83426 1.55915,-4.39398 -0.13862,-0.55448 -0.76446,-0.71249 -0.85045,-1.22842 -0.15169,-0.91017 0.70157,-1.63497 0.47248,-2.55134 -0.20001,-0.80004 -1.65365,-1.1751 -1.65365,-2.55134 0,-0.38601 -0.62721,-0.90577 -0.8032,-1.22842 -0.96054,-1.76099 -1.56125,-2.1374 -3.49628,-1.65365 -0.2428,0.0607 -0.51972,0.22204 -0.51972,0.51972 0,1.78292 -4.44444,0.68901 -4.37866,1.88474 z"
             style="fill:#e07a87;fill-opacity:1;stroke:none;stroke-width:0.26458332px;stroke-linecap:butt;stroke-linejoin:miter;stroke-opacity:1"
             clip-path="url(#clipPath1627)"
             transform="translate(-1.984375,-0.99218749)" />
          <path
             transform="translate(-1.984375,-0.99218749)"
             clip-path="url(#clipPath1627)"
             style="fill:url(#linearGradient1633);fill-opacity:1;stroke:none;stroke-width:0.26458332px;stroke-linecap:butt;stroke-linejoin:miter;stroke-opacity:1"
             d="m 193.14828,188.89574 c 0.18389,-0.0455 0.36512,-0.10356 0.55165,-0.1366 0.3163,-0.056 -0.62372,0.18899 -0.94494,0.18899 -0.69662,0 -1.54434,-0.12552 -2.17336,0.18898 -0.4518,0.22591 -0.82692,1.13413 -1.03943,1.55916 -0.86116,1.72231 -2.90692,2.84233 -2.22061,5.24442 0.38201,1.33706 1.39133,2.33137 1.84263,3.68526 0.3056,0.9168 1.15432,3.33602 2.36235,3.63803 2.02028,0.50507 3.20281,-2.15349 5.29167,-1.37017 2.1985,0.82444 3.65794,2.42326 6.23661,1.13393 0.94521,-0.47261 -0.5839,-2.34988 -0.23624,-2.92931 0.96842,-1.61404 2.19908,-1.83426 1.55915,-4.39398 -0.13862,-0.55448 -0.76446,-0.71249 -0.85045,-1.22842 -0.15169,-0.91017 0.70157,-1.63497 0.47248,-2.55134 -0.20001,-0.80004 -1.65365,-1.1751 -1.65365,-2.55134 0,-0.38601 -0.62721,-0.90577 -0.8032,-1.22842 -0.96054,-1.76099 -1.56125,-2.1374 -3.49628,-1.65365 -0.2428,0.0607 -0.51972,0.22204 -0.51972,0.51972 0,1.78292 -4.44444,0.68901 -4.37866,1.88474 z"
             id="path1452"
             inkscape:connector-curvature="0"
             inkscape:export-filename="/home/marciel/circle2379.png"
             inkscape:export-xdpi="431.51831"
             inkscape:export-ydpi="431.51831" />
        </g>
        <g
           id="g1673"
           transform="translate(28.678943,-18.946056)">
          <path
             inkscape:export-ydpi="431.51831"
             inkscape:export-xdpi="431.51831"
             inkscape:export-filename="/home/marciel/circle2379.png"
             inkscape:connector-curvature="0"
             id="path1669"
             d="m 164.09136,206.99135 c 0.18389,-0.0455 0.36512,-0.10356 0.55165,-0.1366 0.3163,-0.056 -0.62372,0.18899 -0.94494,0.18899 -0.69662,0 -1.54434,-0.12552 -2.17336,0.18898 -0.4518,0.22591 -0.82692,1.13413 -1.03943,1.55916 -0.86116,1.72231 -2.90692,2.84233 -2.22061,5.24442 0.38201,1.33706 1.39133,2.33137 1.84263,3.68526 0.3056,0.9168 1.15432,3.33602 2.36235,3.63803 2.02028,0.50507 3.20281,-2.15349 5.29167,-1.37017 2.1985,0.82444 3.65794,2.42326 6.23661,1.13393 0.94521,-0.47261 -0.5839,-2.34988 -0.23624,-2.92931 0.96842,-1.61404 2.19908,-1.83426 1.55915,-4.39398 -0.13862,-0.55448 -0.76446,-0.71249 -0.85045,-1.22842 -0.15169,-0.91017 0.70157,-1.63497 0.47248,-2.55134 -0.20001,-0.80004 -1.65365,-1.1751 -1.65365,-2.55134 0,-0.38601 -0.62721,-0.90577 -0.8032,-1.22842 -0.96054,-1.76099 -1.56125,-2.1374 -3.49628,-1.65365 -0.2428,0.0607 -0.51972,0.22204 -0.51972,0.51972 0,1.78292 -4.44444,0.68901 -4.37866,1.88474 z"
             style="fill:#e17b88;fill-opacity:1;stroke:none;stroke-width:0.26458332px;stroke-linecap:butt;stroke-linejoin:miter;stroke-opacity:1"
             clip-path="url(#clipPath1659)" />
          <path
             clip-path="url(#clipPath1659)"
             style="fill:url(#linearGradient1502);fill-opacity:1;stroke:none;stroke-width:0.26458332px;stroke-linecap:butt;stroke-linejoin:miter;stroke-opacity:1"
             d="m 164.09136,206.99135 c 0.18389,-0.0455 0.36512,-0.10356 0.55165,-0.1366 0.3163,-0.056 -0.62372,0.18899 -0.94494,0.18899 -0.69662,0 -1.54434,-0.12552 -2.17336,0.18898 -0.4518,0.22591 -0.82692,1.13413 -1.03943,1.55916 -0.86116,1.72231 -2.90692,2.84233 -2.22061,5.24442 0.38201,1.33706 1.39133,2.33137 1.84263,3.68526 0.3056,0.9168 1.15432,3.33602 2.36235,3.63803 2.02028,0.50507 3.20281,-2.15349 5.29167,-1.37017 2.1985,0.82444 3.65794,2.42326 6.23661,1.13393 0.94521,-0.47261 -0.5839,-2.34988 -0.23624,-2.92931 0.96842,-1.61404 2.19908,-1.83426 1.55915,-4.39398 -0.13862,-0.55448 -0.76446,-0.71249 -0.85045,-1.22842 -0.15169,-0.91017 0.70157,-1.63497 0.47248,-2.55134 -0.20001,-0.80004 -1.65365,-1.1751 -1.65365,-2.55134 0,-0.38601 -0.62721,-0.90577 -0.8032,-1.22842 -0.96054,-1.76099 -1.56125,-2.1374 -3.49628,-1.65365 -0.2428,0.0607 -0.51972,0.22204 -0.51972,0.51972 0,1.78292 -4.44444,0.68901 -4.37866,1.88474 z"
             id="path1500"
             inkscape:connector-curvature="0"
             inkscape:export-filename="/home/marciel/circle2379.png"
             inkscape:export-xdpi="431.51831"
             inkscape:export-ydpi="431.51831" />
        </g>
        <g
           id="g1657"
           transform="translate(0.20168182,-22.755869)">
          <path
             style="fill:#71283b;fill-opacity:1;stroke:none;stroke-width:0.26458332px;stroke-linecap:butt;stroke-linejoin:miter;stroke-opacity:1"
             d="m 191.87261,210.9601 c 0.18389,-0.0455 0.36512,-0.10356 0.55165,-0.1366 0.3163,-0.056 -0.62372,0.18899 -0.94494,0.18899 -0.69662,0 -1.54434,-0.12552 -2.17336,0.18898 -0.4518,0.22591 -0.82692,1.13413 -1.03943,1.55916 -0.86116,1.72231 -2.90692,2.84233 -2.22061,5.24442 0.38201,1.33706 1.39133,2.33137 1.84263,3.68526 0.3056,0.9168 1.15432,3.33602 2.36235,3.63803 2.02028,0.50507 3.20281,-2.15349 5.29167,-1.37017 2.1985,0.82444 3.65794,2.42326 6.23661,1.13393 0.94521,-0.47261 -0.5839,-2.34988 -0.23624,-2.92931 0.96842,-1.61404 2.19908,-1.83426 1.55915,-4.39398 -0.13862,-0.55448 -0.76446,-0.71249 -0.85045,-1.22842 -0.15169,-0.91017 0.70157,-1.63497 0.47248,-2.55134 -0.20001,-0.80004 -1.65365,-1.1751 -1.65365,-2.55134 0,-0.38601 -0.62721,-0.90577 -0.8032,-1.22842 -0.96054,-1.76099 -1.56125,-2.1374 -3.49628,-1.65365 -0.2428,0.0607 -0.51972,0.22204 -0.51972,0.51972 0,1.78292 -4.44444,0.68901 -4.37866,1.88474 z"
             id="path1653"
             inkscape:connector-curvature="0"
             inkscape:export-filename="/home/marciel/circle2379.png"
             inkscape:export-xdpi="431.51831"
             inkscape:export-ydpi="431.51831"
             clip-path="url(#clipPath1641)" />
          <path
             clip-path="url(#clipPath1641)"
             inkscape:export-ydpi="431.51831"
             inkscape:export-xdpi="431.51831"
             inkscape:export-filename="/home/marciel/circle2379.png"
             inkscape:connector-curvature="0"
             id="path1548"
             d="m 191.87261,210.9601 c 0.18389,-0.0455 0.36512,-0.10356 0.55165,-0.1366 0.3163,-0.056 -0.62372,0.18899 -0.94494,0.18899 -0.69662,0 -1.54434,-0.12552 -2.17336,0.18898 -0.4518,0.22591 -0.82692,1.13413 -1.03943,1.55916 -0.86116,1.72231 -2.90692,2.84233 -2.22061,5.24442 0.38201,1.33706 1.39133,2.33137 1.84263,3.68526 0.3056,0.9168 1.15432,3.33602 2.36235,3.63803 2.02028,0.50507 3.20281,-2.15349 5.29167,-1.37017 2.1985,0.82444 3.65794,2.42326 6.23661,1.13393 0.94521,-0.47261 -0.5839,-2.34988 -0.23624,-2.92931 0.96842,-1.61404 2.19908,-1.83426 1.55915,-4.39398 -0.13862,-0.55448 -0.76446,-0.71249 -0.85045,-1.22842 -0.15169,-0.91017 0.70157,-1.63497 0.47248,-2.55134 -0.20001,-0.80004 -1.65365,-1.1751 -1.65365,-2.55134 0,-0.38601 -0.62721,-0.90577 -0.8032,-1.22842 -0.96054,-1.76099 -1.56125,-2.1374 -3.49628,-1.65365 -0.2428,0.0607 -0.51972,0.22204 -0.51972,0.51972 0,1.78292 -4.44444,0.68901 -4.37866,1.88474 z"
             style="fill:url(#linearGradient1550);fill-opacity:1;stroke:none;stroke-width:0.26458332px;stroke-linecap:butt;stroke-linejoin:miter;stroke-opacity:1" />
        </g>
      </g>
    </g>
    <g
       transform="matrix(0.89228443,0,0,0.89228443,-144.16979,-148.91)"
       id="g1791"
       inkscape:export-xdpi="318.35013"
       inkscape:export-ydpi="318.35013">
      <path
         style="color:#000000;font-style:normal;font-variant:normal;font-weight:normal;font-stretch:normal;font-size:medium;line-height:normal;font-family:sans-serif;font-variant-ligatures:normal;font-variant-position:normal;font-variant-caps:normal;font-variant-numeric:normal;font-variant-alternates:normal;font-feature-settings:normal;text-indent:0;text-align:start;text-decoration:none;text-decoration-line:none;text-decoration-style:solid;text-decoration-color:#000000;letter-spacing:normal;word-spacing:normal;text-transform:none;writing-mode:lr-tb;direction:ltr;text-orientation:mixed;dominant-baseline:auto;baseline-shift:baseline;text-anchor:start;white-space:normal;shape-padding:0;clip-rule:nonzero;display:inline;overflow:visible;visibility:visible;opacity:1;isolation:auto;mix-blend-mode:normal;color-interpolation:sRGB;color-interpolation-filters:linearRGB;solid-color:#000000;solid-opacity:1;vector-effect:none;fill:#e07a87;fill-opacity:1;fill-rule:nonzero;stroke:none;stroke-width:1.16275108;stroke-linecap:butt;stroke-linejoin:miter;stroke-miterlimit:4;stroke-dasharray:none;stroke-dashoffset:0;stroke-opacity:1;color-rendering:auto;image-rendering:auto;shape-rendering:auto;text-rendering:auto;enable-background:accumulate"
         d="m 188.44995,215.77906 c -0.85653,-0.0315 -1.74039,0.26626 -2.55488,0.91467 -0.92699,0.73799 -1.42705,1.99314 -1.74356,3.49953 0.47116,-0.1216 0.91807,-0.22557 1.27847,-0.32194 0.2994,-1.08718 0.71617,-1.89439 1.18753,-2.26963 0.73214,-0.58286 1.37402,-0.73517 2.02726,-0.63872 0.65324,0.0965 1.34724,0.48014 2.03916,1.11362 1.38382,1.26698 2.70016,3.49446 3.67005,5.77329 0.94386,2.21765 1.23303,4.77751 1.13069,6.93756 -0.0512,1.08004 -0.19833,2.06095 -0.40205,2.83962 -0.20372,0.77866 -0.48254,1.35858 -0.68161,1.59215 -0.12304,0.14439 -0.79928,0.51938 -1.68569,0.76533 -0.88641,0.24595 -1.9905,0.43 -3.06234,0.50178 -1.07185,0.0718 -2.11771,0.0274 -2.86339,-0.14624 -0.37283,-0.0868 -0.66745,-0.20886 -0.84595,-0.33022 -0.17849,-0.12134 -0.23446,-0.21277 -0.25579,-0.31626 -0.0446,-0.21639 -0.10717,-0.59593 -0.1757,-1.06246 l -1.21491,-0.26045 c 0.0954,0.6868 0.18513,1.23386 0.25218,1.55908 0.0918,0.44543 0.38701,0.80334 0.74,1.04334 0.35299,0.23999 0.7723,0.3916 1.23662,0.49971 0.92865,0.21625 2.05556,0.25112 3.20497,0.17415 1.14941,-0.077 2.31416,-0.26893 3.29489,-0.54105 0.74872,-0.43407 1.74562,-0.52754 2.25981,-1.13326 0.41286,-0.48446 0.69313,-1.17814 0.92191,-2.05259 0.22878,-0.87444 0.38464,-1.92526 0.43925,-3.07785 0.10921,-2.30519 -0.1895,-5.01526 -1.22473,-7.4476 -1.00922,-2.37122 -2.34702,-4.70572 -3.95273,-6.17586 -0.80285,-0.73506 -1.68686,-1.26323 -2.65462,-1.40611 -0.12097,-0.0179 -0.24248,-0.0291 -0.36484,-0.0336 z"
         id="path1769"
         inkscape:connector-curvature="0"
         sodipodi:nodetypes="cccccccccccsccccccccccccccccccc" />
      <g
         id="g1789"
         transform="translate(-9.7627668,32.925957)">
        <g
           transform="translate(1.0690781,0.13363476)"
           id="g1775">
          <path
             transform="translate(-1.984375,-0.99218749)"
             clip-path="url(#clipPath1627)"
             style="fill:#e07a87;fill-opacity:1;stroke:none;stroke-width:0.26458332px;stroke-linecap:butt;stroke-linejoin:miter;stroke-opacity:1"
             d="m 193.14828,188.89574 c 0.18389,-0.0455 0.36512,-0.10356 0.55165,-0.1366 0.3163,-0.056 -0.62372,0.18899 -0.94494,0.18899 -0.69662,0 -1.54434,-0.12552 -2.17336,0.18898 -0.4518,0.22591 -0.82692,1.13413 -1.03943,1.55916 -0.86116,1.72231 -2.90692,2.84233 -2.22061,5.24442 0.38201,1.33706 1.39133,2.33137 1.84263,3.68526 0.3056,0.9168 1.15432,3.33602 2.36235,3.63803 2.02028,0.50507 3.20281,-2.15349 5.29167,-1.37017 2.1985,0.82444 3.65794,2.42326 6.23661,1.13393 0.94521,-0.47261 -0.5839,-2.34988 -0.23624,-2.92931 0.96842,-1.61404 2.19908,-1.83426 1.55915,-4.39398 -0.13862,-0.55448 -0.76446,-0.71249 -0.85045,-1.22842 -0.15169,-0.91017 0.70157,-1.63497 0.47248,-2.55134 -0.20001,-0.80004 -1.65365,-1.1751 -1.65365,-2.55134 0,-0.38601 -0.62721,-0.90577 -0.8032,-1.22842 -0.96054,-1.76099 -1.56125,-2.1374 -3.49628,-1.65365 -0.2428,0.0607 -0.51972,0.22204 -0.51972,0.51972 0,1.78292 -4.44444,0.68901 -4.37866,1.88474 z"
             id="path1771"
             inkscape:connector-curvature="0"
             inkscape:export-filename="/home/marciel/circle2379.png"
             inkscape:export-xdpi="431.51831"
             inkscape:export-ydpi="431.51831" />
          <path
             inkscape:export-ydpi="431.51831"
             inkscape:export-xdpi="431.51831"
             inkscape:export-filename="/home/marciel/circle2379.png"
             inkscape:connector-curvature="0"
             id="path1773"
             d="m 193.14828,188.89574 c 0.18389,-0.0455 0.36512,-0.10356 0.55165,-0.1366 0.3163,-0.056 -0.62372,0.18899 -0.94494,0.18899 -0.69662,0 -1.54434,-0.12552 -2.17336,0.18898 -0.4518,0.22591 -0.82692,1.13413 -1.03943,1.55916 -0.86116,1.72231 -2.90692,2.84233 -2.22061,5.24442 0.38201,1.33706 1.39133,2.33137 1.84263,3.68526 0.3056,0.9168 1.15432,3.33602 2.36235,3.63803 2.02028,0.50507 3.20281,-2.15349 5.29167,-1.37017 2.1985,0.82444 3.65794,2.42326 6.23661,1.13393 0.94521,-0.47261 -0.5839,-2.34988 -0.23624,-2.92931 0.96842,-1.61404 2.19908,-1.83426 1.55915,-4.39398 -0.13862,-0.55448 -0.76446,-0.71249 -0.85045,-1.22842 -0.15169,-0.91017 0.70157,-1.63497 0.47248,-2.55134 -0.20001,-0.80004 -1.65365,-1.1751 -1.65365,-2.55134 0,-0.38601 -0.62721,-0.90577 -0.8032,-1.22842 -0.96054,-1.76099 -1.56125,-2.1374 -3.49628,-1.65365 -0.2428,0.0607 -0.51972,0.22204 -0.51972,0.51972 0,1.78292 -4.44444,0.68901 -4.37866,1.88474 z"
             style="fill:url(#linearGradient1793);fill-opacity:1;stroke:none;stroke-width:0.26458332px;stroke-linecap:butt;stroke-linejoin:miter;stroke-opacity:1"
             clip-path="url(#clipPath1627)"
             transform="translate(-1.984375,-0.99218749)" />
        </g>
        <g
           transform="translate(28.678943,-18.946056)"
           id="g1781">
          <path
             clip-path="url(#clipPath1659)"
             style="fill:#e17b88;fill-opacity:1;stroke:none;stroke-width:0.26458332px;stroke-linecap:butt;stroke-linejoin:miter;stroke-opacity:1"
             d="m 164.09136,206.99135 c 0.18389,-0.0455 0.36512,-0.10356 0.55165,-0.1366 0.3163,-0.056 -0.62372,0.18899 -0.94494,0.18899 -0.69662,0 -1.54434,-0.12552 -2.17336,0.18898 -0.4518,0.22591 -0.82692,1.13413 -1.03943,1.55916 -0.86116,1.72231 -2.90692,2.84233 -2.22061,5.24442 0.38201,1.33706 1.39133,2.33137 1.84263,3.68526 0.3056,0.9168 1.15432,3.33602 2.36235,3.63803 2.02028,0.50507 3.20281,-2.15349 5.29167,-1.37017 2.1985,0.82444 3.65794,2.42326 6.23661,1.13393 0.94521,-0.47261 -0.5839,-2.34988 -0.23624,-2.92931 0.96842,-1.61404 2.19908,-1.83426 1.55915,-4.39398 -0.13862,-0.55448 -0.76446,-0.71249 -0.85045,-1.22842 -0.15169,-0.91017 0.70157,-1.63497 0.47248,-2.55134 -0.20001,-0.80004 -1.65365,-1.1751 -1.65365,-2.55134 0,-0.38601 -0.62721,-0.90577 -0.8032,-1.22842 -0.96054,-1.76099 -1.56125,-2.1374 -3.49628,-1.65365 -0.2428,0.0607 -0.51972,0.22204 -0.51972,0.51972 0,1.78292 -4.44444,0.68901 -4.37866,1.88474 z"
             id="path1777"
             inkscape:connector-curvature="0"
             inkscape:export-filename="/home/marciel/circle2379.png"
             inkscape:export-xdpi="431.51831"
             inkscape:export-ydpi="431.51831" />
          <path
             inkscape:export-ydpi="431.51831"
             inkscape:export-xdpi="431.51831"
             inkscape:export-filename="/home/marciel/circle2379.png"
             inkscape:connector-curvature="0"
             id="path1779"
             d="m 164.09136,206.99135 c 0.18389,-0.0455 0.36512,-0.10356 0.55165,-0.1366 0.3163,-0.056 -0.62372,0.18899 -0.94494,0.18899 -0.69662,0 -1.54434,-0.12552 -2.17336,0.18898 -0.4518,0.22591 -0.82692,1.13413 -1.03943,1.55916 -0.86116,1.72231 -2.90692,2.84233 -2.22061,5.24442 0.38201,1.33706 1.39133,2.33137 1.84263,3.68526 0.3056,0.9168 1.15432,3.33602 2.36235,3.63803 2.02028,0.50507 3.20281,-2.15349 5.29167,-1.37017 2.1985,0.82444 3.65794,2.42326 6.23661,1.13393 0.94521,-0.47261 -0.5839,-2.34988 -0.23624,-2.92931 0.96842,-1.61404 2.19908,-1.83426 1.55915,-4.39398 -0.13862,-0.55448 -0.76446,-0.71249 -0.85045,-1.22842 -0.15169,-0.91017 0.70157,-1.63497 0.47248,-2.55134 -0.20001,-0.80004 -1.65365,-1.1751 -1.65365,-2.55134 0,-0.38601 -0.62721,-0.90577 -0.8032,-1.22842 -0.96054,-1.76099 -1.56125,-2.1374 -3.49628,-1.65365 -0.2428,0.0607 -0.51972,0.22204 -0.51972,0.51972 0,1.78292 -4.44444,0.68901 -4.37866,1.88474 z"
             style="fill:url(#linearGradient1795);fill-opacity:1;stroke:none;stroke-width:0.26458332px;stroke-linecap:butt;stroke-linejoin:miter;stroke-opacity:1"
             clip-path="url(#clipPath1659)" />
        </g>
        <g
           transform="translate(0.20168182,-22.755869)"
           id="g1787">
          <path
             clip-path="url(#clipPath1641)"
             inkscape:export-ydpi="431.51831"
             inkscape:export-xdpi="431.51831"
             inkscape:export-filename="/home/marciel/circle2379.png"
             inkscape:connector-curvature="0"
             id="path1783"
             d="m 191.87261,210.9601 c 0.18389,-0.0455 0.36512,-0.10356 0.55165,-0.1366 0.3163,-0.056 -0.62372,0.18899 -0.94494,0.18899 -0.69662,0 -1.54434,-0.12552 -2.17336,0.18898 -0.4518,0.22591 -0.82692,1.13413 -1.03943,1.55916 -0.86116,1.72231 -2.90692,2.84233 -2.22061,5.24442 0.38201,1.33706 1.39133,2.33137 1.84263,3.68526 0.3056,0.9168 1.15432,3.33602 2.36235,3.63803 2.02028,0.50507 3.20281,-2.15349 5.29167,-1.37017 2.1985,0.82444 3.65794,2.42326 6.23661,1.13393 0.94521,-0.47261 -0.5839,-2.34988 -0.23624,-2.92931 0.96842,-1.61404 2.19908,-1.83426 1.55915,-4.39398 -0.13862,-0.55448 -0.76446,-0.71249 -0.85045,-1.22842 -0.15169,-0.91017 0.70157,-1.63497 0.47248,-2.55134 -0.20001,-0.80004 -1.65365,-1.1751 -1.65365,-2.55134 0,-0.38601 -0.62721,-0.90577 -0.8032,-1.22842 -0.96054,-1.76099 -1.56125,-2.1374 -3.49628,-1.65365 -0.2428,0.0607 -0.51972,0.22204 -0.51972,0.51972 0,1.78292 -4.44444,0.68901 -4.37866,1.88474 z"
             style="fill:#71283b;fill-opacity:1;stroke:none;stroke-width:0.26458332px;stroke-linecap:butt;stroke-linejoin:miter;stroke-opacity:1" />
          <path
             style="fill:url(#linearGradient1797);fill-opacity:1;stroke:none;stroke-width:0.26458332px;stroke-linecap:butt;stroke-linejoin:miter;stroke-opacity:1"
             d="m 191.87261,210.9601 c 0.18389,-0.0455 0.36512,-0.10356 0.55165,-0.1366 0.3163,-0.056 -0.62372,0.18899 -0.94494,0.18899 -0.69662,0 -1.54434,-0.12552 -2.17336,0.18898 -0.4518,0.22591 -0.82692,1.13413 -1.03943,1.55916 -0.86116,1.72231 -2.90692,2.84233 -2.22061,5.24442 0.38201,1.33706 1.39133,2.33137 1.84263,3.68526 0.3056,0.9168 1.15432,3.33602 2.36235,3.63803 2.02028,0.50507 3.20281,-2.15349 5.29167,-1.37017 2.1985,0.82444 3.65794,2.42326 6.23661,1.13393 0.94521,-0.47261 -0.5839,-2.34988 -0.23624,-2.92931 0.96842,-1.61404 2.19908,-1.83426 1.55915,-4.39398 -0.13862,-0.55448 -0.76446,-0.71249 -0.85045,-1.22842 -0.15169,-0.91017 0.70157,-1.63497 0.47248,-2.55134 -0.20001,-0.80004 -1.65365,-1.1751 -1.65365,-2.55134 0,-0.38601 -0.62721,-0.90577 -0.8032,-1.22842 -0.96054,-1.76099 -1.56125,-2.1374 -3.49628,-1.65365 -0.2428,0.0607 -0.51972,0.22204 -0.51972,0.51972 0,1.78292 -4.44444,0.68901 -4.37866,1.88474 z"
             id="path1785"
             inkscape:connector-curvature="0"
             inkscape:export-filename="/home/marciel/circle2379.png"
             inkscape:export-xdpi="431.51831"
             inkscape:export-ydpi="431.51831"
             clip-path="url(#clipPath1641)" />
        </g>
      </g>
    </g>
    <g
       transform="matrix(1.2214191,0,0,1.2214191,-28.373917,-169.52633)"
       id="g1813"
       inkscape:export-xdpi="318.35013"
       inkscape:export-ydpi="318.35013">
      <text
         id="text1805"
         y="186.78828"
         x="53.238422"
         style="font-style:normal;font-variant:normal;font-weight:normal;font-stretch:normal;font-size:10.16700745px;line-height:1.25;font-family:'Fira Sans';-inkscape-font-specification:'Fira Sans, Normal';font-variant-ligatures:normal;font-variant-caps:normal;font-variant-numeric:normal;font-feature-settings:normal;text-align:start;letter-spacing:0px;word-spacing:0px;writing-mode:lr-tb;text-anchor:start;fill:#e07a87;fill-opacity:1;stroke:none;stroke-width:0.25417519"
         xml:space="preserve"><tspan
           style="font-style:normal;font-variant:normal;font-weight:300;font-stretch:normal;font-size:10.16705513px;font-family:'Fira Sans';-inkscape-font-specification:'Fira Sans, Light';font-variant-ligatures:normal;font-variant-caps:normal;font-variant-numeric:normal;font-feature-settings:normal;text-align:start;writing-mode:lr-tb;text-anchor:start;fill:#e07a87;fill-opacity:1;stroke-width:0.25417519"
           y="186.78828"
           x="53.238422"
           id="tspan1803"
           sodipodi:role="line"><tspan
             style="fill:#e07a87;fill-opacity:1"
             id="tspan1799">DAT</tspan><tspan
             style="font-style:normal;font-variant:normal;font-weight:normal;font-stretch:normal;font-size:10.16705513px;font-family:'Fira Sans';-inkscape-font-specification:'Fira Sans, Normal';font-variant-ligatures:normal;font-variant-caps:normal;font-variant-numeric:normal;font-feature-settings:normal;text-align:start;writing-mode:lr-tb;text-anchor:start;fill:#e07a87;fill-opacity:1"
             id="tspan1801">ASMA</tspan></tspan></text>
      <text
         xml:space="preserve"
         style="font-style:normal;font-variant:normal;font-weight:normal;font-stretch:normal;font-size:10.16700745px;line-height:1.25;font-family:'Fira Sans';-inkscape-font-specification:'Fira Sans, Normal';font-variant-ligatures:normal;font-variant-caps:normal;font-variant-numeric:normal;font-feature-settings:normal;text-align:start;letter-spacing:0px;word-spacing:0px;writing-mode:lr-tb;text-anchor:start;fill:#472025;fill-opacity:1;stroke:none;stroke-width:0.25417519"
         x="69.833954"
         y="186.79419"
         id="text1811"><tspan
           sodipodi:role="line"
           id="tspan1809"
           x="69.833954"
           y="186.79419"
           style="font-style:normal;font-variant:normal;font-weight:300;font-stretch:normal;font-size:10.16705513px;font-family:'Fira Sans';-inkscape-font-specification:'Fira Sans, Light';font-variant-ligatures:normal;font-variant-caps:normal;font-variant-numeric:normal;font-feature-settings:normal;text-align:start;writing-mode:lr-tb;text-anchor:start;fill:#472025;fill-opacity:1;stroke-width:0.25417519"><tspan
             id="tspan1807"
             style="font-style:normal;font-variant:normal;font-weight:normal;font-stretch:normal;font-size:10.16705513px;font-family:'Fira Sans';-inkscape-font-specification:'Fira Sans, Normal';font-variant-ligatures:normal;font-variant-caps:normal;font-variant-numeric:normal;font-feature-settings:normal;text-align:start;writing-mode:lr-tb;text-anchor:start;fill:#472025;fill-opacity:1">ASMA</tspan></tspan></text>
    </g>
  </g>
</svg>
